<?xml version="1.0" encoding="UTF-8"?>
<svg version="1.1" xmlns="http://www.w3.org/2000/svg" width="500" height="500">
<path d="M0 0 C13.2 0 26.4 0 40 0 C40 0.66 40 1.32 40 2 C43.465 1.505 43.465 1.505 47 1 C47 1.66 47 2.32 47 3 C52.61 3.33 58.22 3.66 64 4 C64 4.66 64 5.32 64 6 C65.46373047 6.16242188 65.46373047 6.16242188 66.95703125 6.328125 C71.37948712 6.96355448 75.47188916 8.30284328 79.6875 9.75 C80.87388062 10.1531543 80.87388062 10.1531543 82.08422852 10.56445312 C91.68741496 13.87003576 100.76788742 17.6726627 109.625 22.66796875 C112.55610961 24.311897 115.40509485 25.78235178 118.5625 26.9375 C121.03981616 28.01735576 122.20119227 29.03766429 124 31 C124.99 31.66 125.98 32.32 127 33 C129.70729242 34.94746271 132.35557991 36.9682039 135 39 C136.19109375 39.90685547 136.19109375 39.90685547 137.40625 40.83203125 C143.44908826 45.59167645 148.93612854 50.75483163 154.375 56.1875 C155.39207031 57.20336182 155.39207031 57.20336182 156.4296875 58.23974609 C161.51990674 63.38677581 166.21421234 68.56487342 170.125 74.6875 C172.03762622 77.70766752 172.03762622 77.70766752 174.4296875 80.33203125 C176.83029995 82.88193551 178.32162647 85.95319101 180 89 C180.67781447 90.16201415 181.35880687 91.32218042 182.04296875 92.48046875 C195.69498664 115.92060628 207.650536 143.31607897 207 171 C207.66 171 208.32 171 209 171 C209.0498443 175.6773121 209.08592757 180.35446584 209.10986328 185.03198242 C209.11985321 186.61957496 209.1334498 188.20714943 209.15087891 189.79467773 C209.23982861 198.1114752 209.21970733 205.92662991 207 214 C206.69716308 215.58680538 206.41147889 217.17695482 206.140625 218.76953125 C201.6666255 244.32838959 193.16898672 266.68804815 180 289 C179.45988281 289.93199219 178.91976563 290.86398437 178.36328125 291.82421875 C177 294 177 294 175 296 C174.01 296 173.02 296 172 296 C171.62875 295.21625 171.2575 294.4325 170.875 293.625 C168.93825088 289.67628821 166.51449653 286.04358756 164.109375 282.3671875 C163 280 163 280 163.15234375 278.05078125 C164.24895881 275.39768031 165.49516255 272.8637991 166.8125 270.3125 C169.37830224 265.27363536 171.76971982 260.1952409 174 255 C174.66 255 175.32 255 176 255 C176.0825 254.030625 176.165 253.06125 176.25 252.0625 C176.67294215 249.02940059 177.5288186 246.68124376 178.875 243.9375 C181.39241028 238.57550699 182.47045712 233.03493881 183.53686523 227.23413086 C183.88579626 225.55091112 184.30048287 223.88112642 184.74633789 222.22094727 C187.35378264 211.90473699 187.42528474 201.91144882 187.33618164 191.32202148 C187.31246073 188.30750964 187.31565845 185.29387939 187.32226562 182.27929688 C187.30426838 170.29133823 186.44053762 159.53592025 183 148 C180.20542074 137.23942935 180.20542074 137.23942935 179.53515625 133.1953125 C179.35855469 132.47085938 179.18195313 131.74640625 179 131 C178.34 130.67 177.68 130.34 177 130 C175.96484375 127.63671875 175.96484375 127.63671875 174.9375 124.6875 C174.42509766 123.23923828 174.42509766 123.23923828 173.90234375 121.76171875 C173 119 173 119 172.50390625 116.70703125 C172.33761719 116.14371094 172.17132813 115.58039063 172 115 C171.34 114.67 170.68 114.34 170 114 C168.94535351 112.0282696 167.95394836 110.02237052 167 108 C164.97261659 103.66578672 164.97261659 103.66578672 162 100 C162 99.01 162 98.02 162 97 C161.34 97 160.68 97 160 97 C159.566875 96.071875 159.13375 95.14375 158.6875 94.1875 C157.23894475 91.07352146 157.23894475 91.07352146 155.3125 89.3125 C154.879375 88.879375 154.44625 88.44625 154 88 C154 87.01 154 86.02 154 85 C153.01 84.67 152.02 84.34 151 84 C149.58528397 82.40591302 148.24075901 80.74893135 146.9375 79.0625 C142.3535489 73.32128911 137.55434865 67.84036811 132 63 C131.34 63 130.68 63 130 63 C128.78119174 61.51766563 127.56517075 60.03276806 126.375 58.52734375 C124.54328475 56.49268277 122.36025966 55.34871981 120 54 C120 53.34 120 52.68 120 52 C119.32582031 51.76667969 118.65164063 51.53335938 117.95703125 51.29296875 C114.25067002 49.67235373 111.06124158 47.52716219 107.6875 45.3125 C99.79110113 40.26307108 91.71123027 36.4182453 83 33 C81.31003906 32.32517578 81.31003906 32.32517578 79.5859375 31.63671875 C62.42610954 25.14652621 45.27041358 21.98900742 27 21 C25.82824219 20.9278125 24.65648437 20.855625 23.44921875 20.78125 C3.97446442 20.19919009 -15.73502718 23.33807855 -34 30 C-34.68481445 30.2465332 -35.36962891 30.49306641 -36.07519531 30.74707031 C-48.71771345 35.36966505 -60.71499732 41.19278666 -71.890625 48.71484375 C-74 50 -74 50 -76 50 C-75.96279449 71.86225817 -75.90287653 93.72434981 -75.81609726 115.58646965 C-75.77632849 125.73798759 -75.743925 135.88942825 -75.72900391 146.04101562 C-75.7159762 154.89161431 -75.68898293 163.7420428 -75.64538693 172.59254563 C-75.62279733 177.27661005 -75.60708782 181.96046475 -75.60811615 186.64458847 C-75.60886424 191.05894641 -75.59085388 195.47284119 -75.55883217 199.88707924 C-75.55035601 201.50186486 -75.54856765 203.11670257 -75.55419731 204.73150063 C-75.58492317 214.90466141 -75.0191428 223.92666822 -68.6875 232.375 C-62.25243294 238.66041434 -54.82924921 241.28867926 -45.875 241.25 C-44.07675781 241.25773437 -44.07675781 241.25773437 -42.2421875 241.265625 C-39.15216954 241.0124669 -37.63837861 240.47749202 -35 239 C-34.01 239 -33.02 239 -32 239 C-31.67 238.34 -31.34 237.68 -31 237 C-26.41176471 233 -26.41176471 233 -24 233 C-23.62875 232.0409375 -23.62875 232.0409375 -23.25 231.0625 C-22 228 -22 228 -21.02212143 226.10050297 C-18.03851179 220.11970165 -17.41829312 215.14883052 -17.45410156 208.52319336 C-17.43859505 207.01429535 -17.43859505 207.01429535 -17.42277527 205.47491455 C-17.39348937 202.17972479 -17.39185107 198.88515307 -17.390625 195.58984375 C-17.37563381 193.29340961 -17.3589047 190.99698622 -17.34051514 188.70057678 C-17.29693527 182.67875659 -17.27686313 176.65708184 -17.26177979 170.63513184 C-17.24217505 164.4812768 -17.20020876 158.32757804 -17.16015625 152.17382812 C-17.08495542 140.11593373 -17.03460253 128.05807449 -17 116 C-13.81175432 114.40587716 -10.37103338 114.89825265 -6.875 114.9375 C-6.12089844 114.94201172 -5.36679688 114.94652344 -4.58984375 114.95117188 C-2.72652873 114.96296501 -0.86325445 114.98090058 1 115 C3.49369592 119.7995958 3.25220899 124.29053649 3.18286133 129.55688477 C3.17821869 130.51369644 3.17357605 131.47050812 3.16879272 132.45631409 C3.15042116 135.61818605 3.11687751 138.77967585 3.08203125 141.94140625 C3.06346062 144.14753325 3.04537604 146.3536644 3.02775574 148.55979919 C2.98824811 153.18750455 2.9408949 157.81505108 2.88842773 162.44262695 C2.82236992 168.34781087 2.77857974 174.25291532 2.74116993 180.15834141 C2.70927169 184.71833696 2.66387735 189.27812614 2.61469078 193.83796501 C2.59310134 196.01342754 2.57596551 198.18893931 2.56351662 200.36447334 C2.45206684 218.08331775 1.5758834 232.70536829 -10.4375 246.875 C-25.05882353 259 -25.05882353 259 -32 259 C-32.33 259.66 -32.66 260.32 -33 261 C-35.47541956 261.37755477 -37.8205997 261.61557861 -40.3125 261.75 C-41.39857544 261.80921631 -41.39857544 261.80921631 -42.5065918 261.86962891 C-56.55879638 262.44964486 -69.46220965 258.57980941 -80 249 C-81.89298689 246.99655713 -83.69635519 244.95237036 -85.45703125 242.83203125 C-86.94235009 240.99448147 -86.94235009 240.99448147 -88.59375 239.51171875 C-90.22363328 237.75959422 -90.883836 236.24515658 -91.6875 234 C-91.93886719 233.319375 -92.19023437 232.63875 -92.44921875 231.9375 C-93 230 -93 230 -93 227 C-93.66 227 -94.32 227 -95 227 C-95.73139812 221.73571585 -96.13518683 216.6525711 -96.17408752 211.32749939 C-96.18058648 210.59873063 -96.18708543 209.86996187 -96.19378132 209.11910921 C-96.21400525 206.70042915 -96.22733856 204.28176526 -96.24047852 201.86303711 C-96.25330562 200.1195402 -96.26644141 198.37604554 -96.27986145 196.6325531 C-96.39530016 180.78224448 -96.45231548 164.93133 -96.49662876 149.08067989 C-96.52992151 137.37191603 -96.58962992 125.66392172 -96.68413979 113.95548815 C-96.74844021 105.71071003 -96.78215962 97.46614207 -96.79337829 89.2211228 C-96.80093761 84.30049991 -96.82211187 79.38081037 -96.87640572 74.46046257 C-96.92685439 69.83486422 -96.9394456 65.21069358 -96.92315483 60.58486366 C-96.92375825 58.88971113 -96.93802226 57.19449883 -96.96710205 55.49959564 C-97.17506286 42.70843434 -97.17506286 42.70843434 -94.25803947 38.4673481 C-92.25014355 36.67271385 -90.34212107 35.3156933 -88 34 C-87.05125 33.360625 -86.1025 32.72125 -85.125 32.0625 C-83 31 -83 31 -81 31 C-81 30.34 -81 29.68 -81 29 C-80.01 29 -79.02 29 -78 29 C-77.67 28.34 -77.34 27.68 -77 27 C-76.01 27 -75.02 27 -74 27 C-74 26.34 -74 25.68 -74 25 C-73.030625 24.71125 -72.06125 24.4225 -71.0625 24.125 C-67.89335797 23.35785318 -67.89335797 23.35785318 -67 21 C-65.68 21 -64.36 21 -63 21 C-63 20.34 -63 19.68 -63 19 C-62.01 19 -61.02 19 -60 19 C-59.67 18.34 -59.34 17.68 -59 17 C-57.20922852 16.19384766 -57.20922852 16.19384766 -54.87890625 15.4140625 C-54.03038086 15.12490967 -53.18185547 14.83575684 -52.30761719 14.5378418 C-51.40172852 14.236604 -50.49583984 13.93536621 -49.5625 13.625 C-47.72465922 13.00046429 -45.88741102 12.37418185 -44.05078125 11.74609375 C-43.17115723 11.44558105 -42.2915332 11.14506836 -41.38525391 10.83544922 C-38.63530239 9.87226252 -35.93879545 8.80959574 -33.25 7.6875 C-24.27390228 4.04728013 -15.56383349 3.47321051 -6 3 C-6 2.34 -6 1.68 -6 1 C-3.03 1.495 -3.03 1.495 0 2 C0 1.34 0 0.68 0 0 Z " fill="#1B1B1B" transform="translate(230,62)"/>
<path d="M0 0 C0.66 0 1.32 0 2 0 C4.30843933 27.8877228 4.30843933 27.8877228 -5.15136719 39.22998047 C-6.24944581 40.5110722 -7.35256635 41.78786126 -8.4609375 43.06005859 C-11.01888285 46.2842708 -12.74902492 49.85506065 -14.5 53.5625 C-14.95149414 54.50947754 -14.95149414 54.50947754 -15.41210938 55.47558594 C-15.98864862 56.6966831 -16.55968024 57.92039685 -17.125 59.14672852 C-18.04841033 61.10253428 -19.03711981 63.01678586 -20.03125 64.9375 C-22.06718446 68.99416805 -23.59177651 73.12754072 -25 77.4375 C-25.25418701 78.20666748 -25.50837402 78.97583496 -25.77026367 79.76831055 C-28.33927329 87.73345791 -30.25665155 95.81967265 -32 104 C-32.18820313 104.85722656 -32.37640625 105.71445313 -32.5703125 106.59765625 C-34.12737434 115.30304743 -34.09714499 124.30424777 -34.125 133.125 C-34.12959229 133.94242676 -34.13418457 134.75985352 -34.13891602 135.60205078 C-34.13690186 136.37532715 -34.1348877 137.14860352 -34.1328125 137.9453125 C-34.13168457 138.63125488 -34.13055664 139.31719727 -34.12939453 140.02392578 C-34.06103419 142.01877875 -34.06103419 142.01877875 -33.48754883 143.96777344 C-32.93610912 146.2663133 -32.97544238 148.21107363 -33.06640625 150.5703125 C-33.1169717 156.21094005 -32.17900713 161.38864437 -30.9375 166.875 C-30.71489502 167.87023682 -30.49229004 168.86547363 -30.26293945 169.89086914 C-23.52782816 198.80385458 -9.50749263 228.09271646 12 249 C12.79664063 249.81082031 13.59328125 250.62164062 14.4140625 251.45703125 C30.68193549 267.45459215 50.51189671 281.11226464 72 289 C72.76231934 289.28262695 73.52463867 289.56525391 74.31005859 289.85644531 C84.88240546 293.73006559 94.89753582 296.74014868 106.140625 297.7109375 C109 298 109 298 110 299 C114.84454924 299.86673446 119.52252767 300.12841066 124.4375 300.1328125 C125.12126709 300.13376923 125.80503418 300.13472595 126.50952148 300.13571167 C127.94482516 300.13638746 129.38013201 300.13457544 130.81542969 300.13037109 C132.99421142 300.12501423 135.17278706 300.13033658 137.3515625 300.13671875 C138.75520878 300.13605786 140.15885494 300.13477648 141.5625 300.1328125 C143.45162109 300.13112061 143.45162109 300.13112061 145.37890625 300.12939453 C150.39564384 299.95012869 155.14576252 299.222753 160 298 C161.92833797 297.67929125 163.85684278 297.3594829 165.78686523 297.04907227 C176.62929842 295.27768302 186.51093005 292.12564675 196.66796875 287.94140625 C198.9471369 287.02134004 201.24544948 286.19399299 203.5625 285.375 C207.07006962 284.41349729 207.07006962 284.41349729 208 282 C209.55764636 281.31348179 211.14737306 280.69872148 212.75 280.125 C216.81917822 278.56659132 219.68704851 276.86525535 223 274 C224.21601723 273.26932298 225.44617295 272.5617998 226.6875 271.875 C229.96166066 270.21636933 229.96166066 270.21636933 232 268 C233.2375 267.566875 233.2375 267.566875 234.5 267.125 C237.49342154 265.77796031 237.65709889 264.86485569 239 262 C240.9375 260.9375 240.9375 260.9375 243 260 C244.50014391 258.66710346 244.50014391 258.66710346 246 257 C246.886875 256.175 247.77375 255.35 248.6875 254.5 C251.33952099 252.20053914 251.33952099 252.20053914 251 249 C250.1862461 247.15312815 250.1862461 247.15312815 249 245.1875 C248.54753906 244.39988281 248.09507812 243.61226562 247.62890625 242.80078125 C247.09136719 241.87652344 246.55382812 240.95226562 246 240 C244.99363593 238.23637188 243.98732962 236.47271029 242.98242188 234.70825195 C239.95312387 229.37820232 239.95312387 229.37820232 236.86376953 224.08300781 C234 219.21220579 234 219.21220579 234 217 C233.34 216.67 232.68 216.34 232 216 C231.375 213.4375 231.375 213.4375 231 211 C230.34 211 229.68 211 229 211 C228.43152344 209.91203125 227.86304688 208.8240625 227.27734375 207.703125 C223.36117853 200.23782836 219.39459531 192.83463595 215.09375 185.58203125 C211.47774383 179.44560926 208.02387436 173.21387191 204.53027344 167.00732422 C203.98918945 166.04713379 203.44810547 165.08694336 202.890625 164.09765625 C202.16407715 162.80613647 202.16407715 162.80613647 201.42285156 161.48852539 C199.98315488 158.97053839 198.50103765 156.48182299 197 154 C194.14288215 157.58737161 191.86532261 161.48404638 189.5625 165.4375 C189.13291992 166.17033203 188.70333984 166.90316406 188.26074219 167.65820312 C185.77401023 171.91355431 183.31972161 176.18636882 180.88671875 180.47265625 C180.36456787 181.39183838 179.84241699 182.31102051 179.30444336 183.25805664 C178.2954197 185.03791288 177.28953445 186.81955336 176.28735352 188.60327148 C167.39828609 204.30085695 167.39828609 204.30085695 164 206 C162.62451844 206.08308638 161.24514204 206.10736016 159.8671875 206.09765625 C159.06152344 206.09443359 158.25585938 206.09121094 157.42578125 206.08789062 C156.58402344 206.07951172 155.74226562 206.07113281 154.875 206.0625 C154.02550781 206.05798828 153.17601562 206.05347656 152.30078125 206.04882812 C150.20049091 206.03702874 148.1002367 206.01909306 146 206 C144.84912109 202.29296875 144.84912109 202.29296875 146.20703125 199.65625 C147.09455078 198.34140625 147.09455078 198.34140625 148 197 C149.23266427 194.83532128 150.4615184 192.66847049 151.6875 190.5 C154.37345225 185.76103893 157.15848859 181.11025936 160.0625 176.5 C163.57834571 170.8524998 166.56850877 165.07662792 169.45703125 159.09375 C173.3254836 151.3372582 173.3254836 151.3372582 176 150 C176.69577211 148.34527241 177.35545968 146.67534772 178 145 C179.18345091 142.71610039 180.39324623 140.44571525 181.625 138.1875 C181.94984375 137.59001953 182.2746875 136.99253906 182.609375 136.37695312 C183.40379151 134.91662865 184.20155376 133.45812509 185 132 C185.66 132 186.32 132 187 132 C187.114646 131.26515381 187.22929199 130.53030762 187.34741211 129.77319336 C188.01378392 126.94142477 188.9197739 125.09102433 190.44140625 122.62890625 C190.93898438 121.81389648 191.4365625 120.99888672 191.94921875 120.15917969 C192.74779297 118.87382324 192.74779297 118.87382324 193.5625 117.5625 C194.65863099 115.76758551 195.75367879 113.97200909 196.84765625 112.17578125 C197.38535645 111.29615723 197.92305664 110.4165332 198.47705078 109.51025391 C203.32110234 101.5258778 207.95733448 93.42221982 212 85 C212.66 85 213.32 85 214 85 C214.33 83.02 214.66 81.04 215 79 C215.66 79 216.32 79 217 79 C217.26554687 78.29488281 217.53109375 77.58976562 217.8046875 76.86328125 C219.06498967 73.84432214 220.53957994 71.04814924 222.125 68.1875 C222.93324219 66.72376953 222.93324219 66.72376953 223.7578125 65.23046875 C224.37269531 64.12638672 224.37269531 64.12638672 225 63 C225.66 63 226.32 63 227 63 C227 62.01 227 61.02 227 60 C237.395 59.505 237.395 59.505 248 59 C248.33 60.65 248.66 62.3 249 64 C248.34 64 247.68 64 247 64 C246.63261719 65.00546875 246.63261719 65.00546875 246.2578125 66.03125 C244.71175653 69.68032621 242.8322218 73.0582174 240.875 76.5 C240.47756592 77.20342529 240.08013184 77.90685059 239.6706543 78.6315918 C236.5235873 84.16505438 233.20767566 89.5746935 229.83984375 94.9765625 C227.56703886 98.71149028 225.493002 102.5333395 223.4296875 106.38671875 C222.01716742 108.9686202 220.5285921 111.48534719 219 114 C212.52587712 123.4457829 212.52587712 123.4457829 209 134 C210.04931526 136.38704087 210.04931526 136.38704087 211.6875 138.75 C213.57600705 141.65539546 215.29686614 144.53826402 216.80859375 147.65234375 C219.3739834 152.87647696 222.38287442 157.82447498 225.375 162.8125 C229.75430621 170.12328105 233.95768899 177.49763611 238 185 C243.90577761 195.8372946 250.02022948 206.53300121 256.35766602 217.12426758 C259.55537676 222.484064 262.60974275 227.90025607 265.57617188 233.39135742 C266.86907943 235.7601361 268.1975976 238.10116228 269.5546875 240.43359375 C269.94140625 241.10197266 270.328125 241.77035156 270.7265625 242.45898438 C271.50997286 243.80863521 272.29929935 245.15486508 273.09375 246.49804688 C275.11677589 250.01769906 276 251.84983629 276 256 C271.7038117 261.76916715 266.63889107 266.54824389 261 271 C259.99456534 271.99453564 258.99500009 272.99502497 258 274 C251.23591005 280.42332975 243.65491433 285.70956388 236 291 C235.44086914 291.39268066 234.88173828 291.78536133 234.30566406 292.18994141 C230.23200549 295 230.23200549 295 228 295 C227.67 295.66 227.34 296.32 227 297 C225.22265625 298.0703125 225.22265625 298.0703125 223.0625 299.125 C221.99708984 299.65480469 221.99708984 299.65480469 220.91015625 300.1953125 C219 301 219 301 217 301 C216.67 301.66 216.34 302.32 216 303 C214.01553744 303.71158472 212.01080678 304.36667503 210 305 C207.12651266 306.11999506 204.28341645 307.31192309 201.4375 308.5 C199.25592836 309.40598718 197.07414137 310.31143539 194.89160156 311.21508789 C193.34640009 311.85626274 191.80369038 312.50343985 190.26171875 313.15234375 C187.97439946 314.00959468 185.76627117 314.57356311 183.375 315.0625 C180.8205113 315.58996268 178.48366124 316.17211292 176 317 C174.56635377 317.34953661 173.12835243 317.68146958 171.6875 318 C170.94886719 318.165 170.21023438 318.33 169.44921875 318.5 C163.68181911 319.67739578 158.05593627 320.27171085 152.1875 320.5625 C150.93453125 320.6251001 150.93453125 320.6251001 149.65625 320.68896484 C136.3714966 321.30446495 123.220635 321.01288713 109.94921875 320.21875 C107.30253316 320.07214823 104.65074267 320 102 320 C102 319.34 102 318.68 102 318 C101.42636719 318.19335938 100.85273438 318.38671875 100.26171875 318.5859375 C97.56682602 319.07930301 96.33686129 318.62738755 93.8125 317.625 C90.61282585 316.45528306 87.83455762 315.79171323 84.4375 315.5625 C80.47375569 315.21516158 77.82545754 314.08883734 74.375 312.17578125 C70.17725569 310.09762165 65.70277713 308.73687654 61.26953125 307.24609375 C58 306 58 306 55.26171875 304.34765625 C53.0092673 302.74406246 53.0092673 302.74406246 50 303 C50 302.34 50 301.68 50 301 C48.68 301 47.36 301 46 301 C44.97895449 300.02149805 43.9793879 299.02019573 43 298 C40.89667109 297.28552357 40.89667109 297.28552357 39 297 C39 296.34 39 295.68 39 295 C38.29875 294.731875 37.5975 294.46375 36.875 294.1875 C31.69901174 292.04959181 27.90274473 290.04212847 24 286 C23.34 286 22.68 286 22 286 C21.67 285.34 21.34 284.68 21 284 C20.01 283.67 19.02 283.34 18 283 C16.97591432 282.0246803 15.98165594 281.01801357 15 280 C14.030625 279.21625 13.06125 278.4325 12.0625 277.625 C9.98356478 275.92591961 8.57234918 274.45914749 6.875 272.3125 C5.01084879 270.01338018 3.71833833 269.06791863 1 268 C1 267.34 1 266.68 1 266 C0.34 265.67 -0.32 265.34 -1 265 C-3.33333333 262.66666667 -5.66666667 260.33333333 -8 258 C-8.804375 257.2575 -8.804375 257.2575 -9.625 256.5 C-11.43656716 254.52374492 -12.62986531 252.30182628 -14 250 C-16.50353877 246.73781312 -18.99373949 243.85828102 -22.125 241.1875 C-24 239 -24 239 -24.25 236.25 C-24.1675 235.5075 -24.085 234.765 -24 234 C-24.99 234 -25.98 234 -27 234 C-27 232.68 -27 231.36 -27 230 C-27.66 229.67 -28.32 229.34 -29 229 C-30.25390625 227.29296875 -30.25390625 227.29296875 -31.5625 225.1875 C-31.99691406 224.50042969 -32.43132812 223.81335938 -32.87890625 223.10546875 C-34 221 -34 221 -34.52734375 218.80078125 C-34.68332031 218.20652344 -34.83929688 217.61226562 -35 217 C-35.66 216.67 -36.32 216.34 -37 216 C-38.0703125 213.3828125 -38.0703125 213.3828125 -39.125 210.125 C-39.65480469 208.52011719 -39.65480469 208.52011719 -40.1953125 206.8828125 C-41 204 -41 204 -41 201 C-41.66 200.67 -42.32 200.34 -43 200 C-43.71247732 198.3523962 -44.37400383 196.68236471 -45 195 C-45.5259375 194.071875 -45.5259375 194.071875 -46.0625 193.125 C-47 191 -47 191 -47.4375 187.8125 C-47.88718156 184.76465832 -48.46144549 182.5272191 -49.5 179.6875 C-50.92910115 175.61421654 -51.42808847 171.83179464 -51.75390625 167.54296875 C-52.08016011 164.17167881 -52.76836937 160.92095706 -53.5 157.6171875 C-55.1271018 149.10032653 -55.15037899 140.7792369 -55.125 132.125 C-55.12886719 130.81402344 -55.13273437 129.50304687 -55.13671875 128.15234375 C-55.11840012 109.88866805 -55.11840012 109.88866805 -52 101 C-51.66250292 98.58930654 -51.37323049 96.17151375 -51.125 93.75 C-50.48203959 88.22580291 -49.28821725 83.47835581 -47.0078125 78.40234375 C-45.55628884 74.94231643 -44.69759965 71.37713148 -43.80859375 67.73828125 C-39.60127472 53.49030715 -31.15460589 40.08980678 -23.11474609 27.71679688 C-22.13531352 26.20839349 -21.17001614 24.69083156 -20.20703125 23.171875 C-17.47538912 18.93045637 -14.66800428 15.49739943 -11 12 C-8.64215136 9.42033285 -6.3147399 6.81501095 -3.98828125 4.20703125 C-2.69491104 2.7713649 -1.3663719 1.3663719 0 0 Z " fill="#171717" transform="translate(117,118)"/>
<path d="M0 0 C1.28293945 -0.08121094 1.28293945 -0.08121094 2.59179688 -0.1640625 C8.74389376 -0.29749295 8.74389376 -0.29749295 11.28466797 1.84985352 C12.62750805 3.66988231 13.67285079 5.47969626 14.6875 7.5 C15.2959375 8.64339844 15.904375 9.78679687 16.53125 10.96484375 C17.0778125 12.11082031 17.624375 13.25679687 18.1875 14.4375 C21.11105791 20.45435033 24.31256879 26.09720878 28.140625 31.58203125 C28.60984375 32.27683594 29.0790625 32.97164062 29.5625 33.6875 C29.99304688 34.29980469 30.42359375 34.91210938 30.8671875 35.54296875 C32.01930064 38.29158152 31.58419392 39.67228614 30.6875 42.5 C29.65964516 44.60157196 28.54893934 46.66390006 27.375 48.6875 C26.78074219 49.73292969 26.18648438 50.77835938 25.57421875 51.85546875 C23.71375613 54.46319793 22.65031514 55.43390978 19.6875 56.5 C19.23375 55.71625 18.78 54.9325 18.3125 54.125 C16.80321258 51.46301969 16.80321258 51.46301969 14.6875 49.5 C13.63365093 47.43317136 12.61906742 45.34623673 11.625 43.25 C8.74772823 37.30922527 5.46743018 31.77892417 1.79663086 26.29589844 C-1.10355789 21.94723409 -3.52635805 17.58096398 -5.375 12.6875 C-6.10452617 10.33484431 -6.10452617 10.33484431 -8.3125 9.5 C-8.9375 6.9375 -8.9375 6.9375 -9.3125 4.5 C-9.9725 4.5 -10.6325 4.5 -11.3125 4.5 C-11.3125 3.51 -11.3125 2.52 -11.3125 1.5 C-7.799943 -0.2562785 -3.87126585 0.10361752 0 0 Z " fill="#1D1D1D" transform="translate(272.3125,176.5)"/>
<path d="M0 0 C4.96242842 0.66165712 9.85508249 1.52399155 14.765625 2.5 C24.71642085 4.03828728 34.60538873 4.15683692 44.64916992 4.13037109 C47.03375774 4.12506397 49.41815266 4.13031719 51.80273438 4.13671875 C62.56534602 4.14087725 73.26128066 3.70357403 84 3 C78.69697759 6.53534827 72.39893888 6.25471459 66.1875 6.5625 C65.3521875 6.6042334 64.516875 6.6459668 63.65625 6.68896484 C50.3714966 7.30446495 37.220635 7.01288713 23.94921875 6.21875 C21.30253316 6.07214823 18.65074267 6 16 6 C16 5.34 16 4.68 16 4 C15.43410156 4.19207031 14.86820313 4.38414062 14.28515625 4.58203125 C11.53280841 5.08545214 10.05629533 4.62246754 7.4375 3.6875 C6.67308594 3.42324219 5.90867188 3.15898437 5.12109375 2.88671875 C3 2 3 2 0 0 Z " fill="#A2A2A2" transform="translate(203,432)"/>
<path d="M0 0 C1.12535156 0.19916016 1.12535156 0.19916016 2.2734375 0.40234375 C8.22334679 1.42896538 14.11604638 2.28339118 20.13671875 2.75390625 C22 3 22 3 23 4 C27.84454924 4.86673446 32.52252767 5.12841066 37.4375 5.1328125 C38.12126709 5.13376923 38.80503418 5.13472595 39.50952148 5.13571167 C40.94482516 5.13638746 42.38013201 5.13457544 43.81542969 5.13037109 C45.99421142 5.12501423 48.17278706 5.13033658 50.3515625 5.13671875 C51.75520878 5.13605786 53.15885494 5.13477648 54.5625 5.1328125 C56.45162109 5.13112061 56.45162109 5.13112061 58.37890625 5.12939453 C62.65651852 4.97654026 66.83871174 4.5743581 70.984375 3.47265625 C74.04713746 2.75445033 77.11475554 2.64071029 80.25 2.4375 C81.51328125 2.35371094 82.7765625 2.26992188 84.078125 2.18359375 C85.04234375 2.12300781 86.0065625 2.06242187 87 2 C87 2.33 87 2.66 87 3 C85.80761719 3.27714844 84.61523438 3.55429687 83.38671875 3.83984375 C81.82029523 4.20565523 80.25388993 4.57154471 78.6875 4.9375 C77.90181641 5.11990234 77.11613281 5.30230469 76.30664062 5.49023438 C75.1706543 5.75610352 75.1706543 5.75610352 74.01171875 6.02734375 C73.31522217 6.18968506 72.61872559 6.35202637 71.90112305 6.51928711 C70.2465594 6.93765565 68.61905892 7.46031369 67 8 C64.24641659 8.05229488 61.52476917 8.04620268 58.7734375 7.984375 C57.95235504 7.96787903 57.13127258 7.95138306 56.28530884 7.93438721 C54.5384477 7.89685404 52.79164921 7.85630353 51.04492188 7.81298828 C48.43366365 7.75138398 45.82258569 7.7091635 43.2109375 7.66796875 C32.20432718 7.43823497 21.77389982 6.23696324 11 4 C10.02023193 3.81268311 9.04046387 3.62536621 8.03100586 3.43237305 C2.27930171 2.27930171 2.27930171 2.27930171 0 0 Z " fill="#CBCBCB" transform="translate(204,413)"/>
<path d="M0 0 C13.2 0 26.4 0 40 0 C40 0.66 40 1.32 40 2 C43.465 1.505 43.465 1.505 47 1 C47 1.66 47 2.32 47 3 C50.3 3.33 53.6 3.66 57 4 C57 4.33 57 4.66 57 5 C52.76665642 5.1881486 49.07312182 4.87121576 44.9206543 4.00439453 C39.25276634 2.94419036 33.83481561 2.74066531 28.08203125 2.8046875 C26.60714485 2.80893234 26.60714485 2.80893234 25.10246277 2.81326294 C22.00567714 2.82433109 18.9091961 2.84940947 15.8125 2.875 C13.69466568 2.88504711 11.57682676 2.89416991 9.45898438 2.90234375 C4.30587477 2.92422641 -0.84701124 2.95866161 -6 3 C-6 2.34 -6 1.68 -6 1 C-3.03 1.495 -3.03 1.495 0 2 C0 1.34 0 0.68 0 0 Z " fill="#CACACA" transform="translate(230,62)"/>
<path d="M0 0 C1.27617187 0.00483398 1.27617187 0.00483398 2.578125 0.00976562 C3.46757812 0.01814453 4.35703125 0.02652344 5.2734375 0.03515625 C6.170625 0.03966797 7.0678125 0.04417969 7.9921875 0.04882812 C10.21100398 0.06063034 12.42968768 0.0770947 14.6484375 0.09765625 C14.6484375 1.08765625 14.6484375 2.07765625 14.6484375 3.09765625 C9.6984375 3.09765625 4.7484375 3.09765625 -0.3515625 3.09765625 C-0.3515625 8.11398543 -0.05728534 10.6201338 1.6484375 15.09765625 C0.1484375 13.72265625 0.1484375 13.72265625 -1.3515625 12.09765625 C-1.3515625 11.43765625 -1.3515625 10.77765625 -1.3515625 10.09765625 C-2.0115625 9.76765625 -2.6715625 9.43765625 -3.3515625 9.09765625 C-3.9765625 6.53515625 -3.9765625 6.53515625 -4.3515625 4.09765625 C-5.0115625 4.09765625 -5.6715625 4.09765625 -6.3515625 4.09765625 C-6.3515625 3.10765625 -6.3515625 2.11765625 -6.3515625 1.09765625 C-4.00303722 -0.07660639 -2.61382185 -0.01742548 0 0 Z " fill="#B9B9B9" transform="translate(267.3515625,176.90234375)"/>
<path d="M0 0 C7.57363254 0.75736325 7.57363254 0.75736325 9.78125 2.01367188 C12.5466308 3.24300049 14.62021643 3.22744451 17.640625 3.1953125 C19.24550781 3.18564453 19.24550781 3.18564453 20.8828125 3.17578125 C21.99398437 3.15902344 23.10515625 3.14226562 24.25 3.125 C25.37664062 3.11597656 26.50328125 3.10695313 27.6640625 3.09765625 C30.44292365 3.07410658 33.2213539 3.0412168 36 3 C35.67 3.66 35.34 4.32 35 5 C32.52470104 5.37753637 30.17924251 5.61495851 27.6875 5.75 C26.9663501 5.79092773 26.2452002 5.83185547 25.50219727 5.87402344 C16.46837613 6.26205871 8.13125711 5.06562855 0 1 C0 0.67 0 0.34 0 0 Z " fill="#A2A2A2" transform="translate(162,318)"/>
<path d="M0 0 C3.96921471 0.52922863 7.88283892 1.16733494 11.8125 1.9375 C19.81061906 3.42734571 27.91290429 4.16371067 36 5 C36 5.33 36 5.66 36 6 C29.4 6 22.8 6 16 6 C16 5.34 16 4.68 16 4 C15.43410156 4.19207031 14.86820313 4.38414062 14.28515625 4.58203125 C11.53280841 5.08545214 10.05629533 4.62246754 7.4375 3.6875 C6.67308594 3.42324219 5.90867188 3.15898437 5.12109375 2.88671875 C3 2 3 2 0 0 Z " fill="#C3C3C3" transform="translate(203,432)"/>
<path d="M0 0 C0 0.33 0 0.66 0 1 C-1.78857422 1.41572266 -1.78857422 1.41572266 -3.61328125 1.83984375 C-5.17970477 2.20565523 -6.74611007 2.57154471 -8.3125 2.9375 C-9.49102539 3.21110352 -9.49102539 3.21110352 -10.69335938 3.49023438 C-11.8293457 3.75610352 -11.8293457 3.75610352 -12.98828125 4.02734375 C-13.68477783 4.18968506 -14.38127441 4.35202637 -15.09887695 4.51928711 C-16.7534406 4.93765565 -18.38094108 5.46031369 -20 6 C-21.73324119 5.91538508 -23.46392812 5.76395645 -25.1875 5.5625 C-26.08855469 5.46066406 -26.98960937 5.35882813 -27.91796875 5.25390625 C-28.60503906 5.17011719 -29.29210937 5.08632813 -30 5 C-30 4.67 -30 4.34 -30 4 C-29.18015625 3.86722656 -28.3603125 3.73445313 -27.515625 3.59765625 C-26.43796875 3.42105469 -25.3603125 3.24445313 -24.25 3.0625 C-23.18265625 2.88847656 -22.1153125 2.71445312 -21.015625 2.53515625 C-18.63341397 2.11240637 -16.34146064 1.59277485 -14 1 C-9.26969899 0.3133434 -4.78988024 -0.11974701 0 0 Z " fill="#A1A1A1" transform="translate(291,415)"/>
<path d="M0 0 C0.66 0.33 1.32 0.66 2 1 C0.60017959 5.27313598 -0.56874198 8.79516473 -3.5625 12.1875 C-5.83151155 14.80559025 -6.94641545 16.74346595 -8 20 C-8.66 20 -9.32 20 -10 20 C-10 18.68 -10 17.36 -10 16 C-9.34 16 -8.68 16 -8 16 C-7.73445313 15.29488281 -7.46890625 14.58976563 -7.1953125 13.86328125 C-5.93501033 10.84432214 -4.46042006 8.04814924 -2.875 5.1875 C-2.33617187 4.21167969 -1.79734375 3.23585937 -1.2421875 2.23046875 C-0.83226562 1.49441406 -0.42234375 0.75835937 0 0 Z " fill="#959595" transform="translate(342,181)"/>
<path d="M0 0 C1.57542938 3.99839989 0.35848458 6.95206878 -0.875 10.9375 C-2.10147777 14.94713885 -3.26328888 18.86971531 -4 23 C-4.33 23 -4.66 23 -5 23 C-4.73559871 14.56559869 -3.70088212 7.62553851 0 0 Z " fill="#CACACA" transform="translate(71,194)"/>
<path d="M0 0 C0.33 0 0.66 0 1 0 C1.38024149 6.7175996 0.32445578 12.66639113 -2 19 C-2.66 19.66 -3.32 20.32 -4 21 C-3.29843593 13.84404654 -1.69214979 6.98144819 0 0 Z " fill="#B4B4B4" transform="translate(416,278)"/>
<path d="M0 0 C0 1.32 0 2.64 0 4 C-0.66 4 -1.32 4 -2 4 C-2 3.01 -2 2.02 -2 1 C-8.6 1.33 -15.2 1.66 -22 2 C-22 1.34 -22 0.68 -22 0 C-18.89635771 -0.19696449 -15.79207808 -0.38093262 -12.6875 -0.5625 C-11.36588867 -0.64661133 -11.36588867 -0.64661133 -10.01757812 -0.73242188 C-8.74624023 -0.80493164 -8.74624023 -0.80493164 -7.44921875 -0.87890625 C-6.27879028 -0.94960327 -6.27879028 -0.94960327 -5.0847168 -1.02172852 C-3 -1 -3 -1 0 0 Z " fill="#BABABA" transform="translate(366,178)"/>
<path d="M0 0 C13.6332574 0.59453303 13.6332574 0.59453303 20 4 C15.60155678 5.37344385 12.07495445 4.24307502 7.75 3.0625 C7.00492187 2.86720703 6.25984375 2.67191406 5.4921875 2.47070312 C3.65920614 1.98895802 1.82928182 1.49560775 0 1 C0 0.67 0 0.34 0 0 Z " fill="#9A9A9A" transform="translate(279,84)"/>
<path d="M0 0 C6.00477279 0.64916463 11.400781 2.85795003 17 5 C15.24609375 6.109375 15.24609375 6.109375 13 7 C11.03515625 6.390625 11.03515625 6.390625 9.0625 5.25 C8.37285156 4.8684375 7.68320313 4.486875 6.97265625 4.09375 C6.32167969 3.7328125 5.67070312 3.371875 5 3 C3.34302621 2.30959426 1.68076231 1.63028587 0 1 C0 0.67 0 0.34 0 0 Z " fill="#C5C5C5" transform="translate(184,426)"/>
<path d="M0 0 C4.875 3.625 4.875 3.625 6 7 C4.68 8.32 3.36 9.64 2 11 C1.34 10.67 0.68 10.34 0 10 C0.37125 9.278125 0.7425 8.55625 1.125 7.8125 C2.18974141 4.39011689 1.60339848 3.11771927 0 0 Z " fill="#787878" transform="translate(367,363)"/>
<path d="M0 0 C1.9375 0.5625 1.9375 0.5625 4 2 C4.6875 5.375 4.6875 5.375 5 9 C5.30903983 10.33917261 5.62942911 11.67653254 6 13 C4.5 11.625 4.5 11.625 3 10 C3 9.34 3 8.68 3 8 C2.34 7.67 1.68 7.34 1 7 C0.59270772 4.67843403 0.25561323 2.3431213 0 0 Z " fill="#878787" transform="translate(263,179)"/>
<path d="M0 0 C0.66 0.66 1.32 1.32 2 2 C0.60667426 5.36720387 -0.9789286 6.9859524 -4 9 C-4 8.34 -4 7.68 -4 7 C-4.66 6.67 -5.32 6.34 -6 6 C-5.38125 5.7525 -4.7625 5.505 -4.125 5.25 C-1.64931313 3.79371361 -1.04874998 2.62187494 0 0 Z " fill="#828282" transform="translate(356,380)"/>
<path d="M0 0 C1 2 1 2 0.25 5.25 C-0.90387122 8.71161366 -2.27771328 11.79028385 -4 15 C-5.32830615 11.01508155 -4.23204404 9.59951452 -2.5625 5.8125 C-2.08941406 4.72582031 -1.61632812 3.63914062 -1.12890625 2.51953125 C-0.75636719 1.68808594 -0.38382812 0.85664063 0 0 Z " fill="#B3B3B3" transform="translate(411,301)"/>
<path d="M0 0 C-1.33934244 2.67868487 -2.51692397 2.74954078 -5.3125 3.6875 C-6.09238281 3.95949219 -6.87226563 4.23148437 -7.67578125 4.51171875 C-10.18274511 5.03839183 -11.60132343 4.8178554 -14 4 C-4.58997722 -0.59225513 -4.58997722 -0.59225513 0 0 Z " fill="#A7A7A7" transform="translate(312,408)"/>
<path d="M0 0 C0.33 0.66 0.66 1.32 1 2 C0.0625 4.625 0.0625 4.625 -1 7 C-1.66 7 -2.32 7 -3 7 C-3.33 8.65 -3.66 10.3 -4 12 C-4.66 12 -5.32 12 -6 12 C-4.68139111 7.38486888 -2.78644563 3.90102388 0 0 Z " fill="#9D9D9D" transform="translate(274,300)"/>
<path d="M0 0 C1 2 1 2 0.75 3.9375 C-0.10622981 6.29213197 -1.21226639 7.28675529 -3 9 C-3.33 9.99 -3.66 10.98 -4 12 C-4.66 12 -5.32 12 -6 12 C-6 10.68 -6 9.36 -6 8 C-5.34 8 -4.68 8 -4 8 C-3.71125 7.236875 -3.4225 6.47375 -3.125 5.6875 C-2 3 -2 3 0 0 Z " fill="#AAAAAA" transform="translate(297,260)"/>
<path d="M0 0 C4.12989477 4.26311718 4.61271765 7.28758534 5 13 C4.34 12.34 3.68 11.68 3 11 C3 10.01 3 9.02 3 8 C2.34 7.67 1.68 7.34 1 7 C0.59270772 4.67843403 0.25561323 2.3431213 0 0 Z " fill="#ACACAC" transform="translate(406,185)"/>
<path d="M0 0 C-4.62197306 2.21854707 -7.76824163 3.38281159 -13 3 C-10.85642985 0.85642985 -9.92072889 0.52040399 -7.0625 -0.1875 C-6.37285156 -0.36667969 -5.68320312 -0.54585938 -4.97265625 -0.73046875 C-3 -1 -3 -1 0 0 Z " fill="#C7C7C7" transform="translate(312,429)"/>
<path d="M0 0 C0 0.66 0 1.32 0 2 C-6.4 5.07692308 -6.4 5.07692308 -9.4375 4.6875 C-9.953125 4.460625 -10.46875 4.23375 -11 4 C-7.34730776 1.66633552 -4.38405624 0 0 0 Z " fill="#B9B9B9" transform="translate(323,403)"/>
<path d="M0 0 C2.74277578 3.19990508 4.6302836 6.00499382 6 10 C5.34 9.67 4.68 9.34 4 9 C4 8.34 4 7.68 4 7 C2.68 6.34 1.36 5.68 0 5 C0 3.35 0 1.7 0 0 Z " fill="#888888" transform="translate(332,265)"/>
<path d="M0 0 C2.61500768 2.36595933 4.38999603 4.86049226 6 8 C5.67 8.66 5.34 9.32 5 10 C0.76169024 7.17446016 1.02284652 4.87819112 0 0 Z " fill="#A1A1A1" transform="translate(364,321)"/>
<path d="M0 0 C2.39073445 3.82517513 2.55966552 7.59665524 3 12 C1.09598862 10.09598862 0.06479561 8.66574314 -0.19921875 5.953125 C-0.1886578 3.96766727 -0.09915043 1.9830086 0 0 Z " fill="#A9A9A9" transform="translate(85,285)"/>
<path d="M0 0 C0.66 0.99 1.32 1.98 2 3 C1.01 3.495 1.01 3.495 0 4 C-1.04808041 5.97522846 -2.0520411 7.97481509 -3 10 C-3.66 9.34 -4.32 8.68 -5 8 C-3.35 5.36 -1.7 2.72 0 0 Z " fill="#A8A8A8" transform="translate(82,167)"/>
<path d="M0 0 C1.32 1.32 2.64 2.64 4 4 C3.34 5.32 2.68 6.64 2 8 C-0.1519437 4.77208445 -0.20086443 3.71599191 0 0 Z " fill="#989898" transform="translate(390,367)"/>
<path d="M0 0 C2.72426311 2.35277269 3.8141763 4.62496331 5 8 C4.01 7.67 3.02 7.34 2 7 C2 6.34 2 5.68 2 5 C1.34 5 0.68 5 0 5 C0 3.35 0 1.7 0 0 Z " fill="#8A8A8A" transform="translate(373,337)"/>
<path d="M0 0 C1.65 0 3.3 0 5 0 C5 0.33 5 0.66 5 1 C3.35 1 1.7 1 0 1 C0 0.67 0 0.34 0 0 Z " fill="#FFFFFF" transform="translate(224,438)"/>
<path d="M0 0 C3 1 3 1 3 1 Z " fill="#FFFFFF" transform="translate(273,438)"/>
<path d="M0 0 C2 1 2 1 2 1 Z " fill="#FFFFFF" transform="translate(204,434)"/>
<path d="M0 0 C2 1 2 1 2 1 Z " fill="#FFFFFF" transform="translate(307,70)"/>
<path d="" fill="#FFFFFF" transform="translate(0,0)"/>
<path d="" fill="#FFFFFF" transform="translate(0,0)"/>
<path d="" fill="#FFFFFF" transform="translate(0,0)"/>
<path d="" fill="#FFFFFF" transform="translate(0,0)"/>
<path d="" fill="#FFFFFF" transform="translate(0,0)"/>
<path d="" fill="#FFFFFF" transform="translate(0,0)"/>
<path d="" fill="#FFFFFF" transform="translate(0,0)"/>
<path d="" fill="#FFFFFF" transform="translate(0,0)"/>
<path d="" fill="#FFFFFF" transform="translate(0,0)"/>
<path d="" fill="#FFFFFF" transform="translate(0,0)"/>
<path d="" fill="#FFFFFF" transform="translate(0,0)"/>
<path d="" fill="#FFFFFF" transform="translate(0,0)"/>
<path d="" fill="#FFFFFF" transform="translate(0,0)"/>
<path d="" fill="#FFFFFF" transform="translate(0,0)"/>
<path d="" fill="#FFFFFF" transform="translate(0,0)"/>
<path d="" fill="#FFFFFF" transform="translate(0,0)"/>
<path d="" fill="#FFFFFF" transform="translate(0,0)"/>
<path d="" fill="#FFFFFF" transform="translate(0,0)"/>
<path d="" fill="#FFFFFF" transform="translate(0,0)"/>
</svg>
